<svg xmlns="http://www.w3.org/2000/svg" viewBox="0 0 164.94 44.52"><defs><style>.cls-1{fill:#353535;}.cls-2{fill:#db324d;}</style></defs><g id="Layer_2" data-name="Layer 2"><g id="Layer_1-2" data-name="Layer 1"><path class="cls-1" d="M4.08,43.2a4.09,4.09,0,0,1-2.58-.9A2.8,2.8,0,0,1,.3,39.9L.12,38.82V38.4a4,4,0,0,0-.06-.78,6.78,6.78,0,0,1,0-1.8v-1a6.52,6.52,0,0,1,.06-1.08l.06-2.16A8.71,8.71,0,0,0,.36,29a.22.22,0,0,1,.06-.18c0-.06,0-.06.06-.12l.06-.24-.06-.3a2.92,2.92,0,0,1,.06-.72,1.49,1.49,0,0,0,.06-.48.76.76,0,0,1,.06-.36,10.78,10.78,0,0,1,.12-1.32L1,23.16a5.25,5.25,0,0,1,.12-1,3.69,3.69,0,0,0,.06-.78c.06-.54.18-1.38.3-2.64a.76.76,0,0,1,.06-.36.36.36,0,0,0,.06-.24L2,16l.06-.24.42-1.56a10.93,10.93,0,0,0,.3-1.2,4.42,4.42,0,0,1,.24-.84,9.71,9.71,0,0,0,.36-1A4.81,4.81,0,0,1,3.9,9.9a1.26,1.26,0,0,1,1.2-.72,4,4,0,0,1,2.46.9A1.54,1.54,0,0,1,8,11.22a1.34,1.34,0,0,1-.12.72,5.93,5.93,0,0,1-.36,1.86c-.06.42-.12.78-.18,1.2a10.45,10.45,0,0,1-.3,1.32A10.31,10.31,0,0,0,6.6,18.6a4.63,4.63,0,0,1-.12.9A16.66,16.66,0,0,0,6,21.78l-.18.78a10.59,10.59,0,0,0-.24,1.2c-.06.42-.06.72-.12,1a4.63,4.63,0,0,0-.12.9c-.06.3-.06.54-.12.78a3,3,0,0,0-.12.72C5,27.42,5,27.72,5,28a6.65,6.65,0,0,0-.12,1.14.77.77,0,0,0,.24-.6.22.22,0,0,0,.06-.18L7,22.74,8,20A4.59,4.59,0,0,1,9.42,17.7a.77.77,0,0,0,.24-.6,1.55,1.55,0,0,1,.54-1,1.68,1.68,0,0,1,1.08-.36h.18q2,.27,2,1.44l-.06,1.38.06.48a3.76,3.76,0,0,1-.12,1,9.31,9.31,0,0,1-.06,1.38c-.06.72-.06,1.44-.06,2.22a33.48,33.48,0,0,0,.18,4l1-5.34c.12-.66.24-1.38.42-2.1A18.9,18.9,0,0,1,15.3,18L16,15.24a23.49,23.49,0,0,1,1.2-4.2l.06-.24v-.06l.06-.24c.12-.24.24-.48.36-.78a3.84,3.84,0,0,1,.36-1,6.67,6.67,0,0,0,.42-1,6.06,6.06,0,0,1,.42-.9,9.54,9.54,0,0,1,.66-1.56,4.86,4.86,0,0,0,.36-.78,3.58,3.58,0,0,1,.54-.9c.18-.3.36-.6.48-.84a3.56,3.56,0,0,1,.24-.48,1.31,1.31,0,0,0,.24-.3c.06-.12.18-.24.3-.42A2.57,2.57,0,0,1,23.88,0a3.51,3.51,0,0,1,1.86.66,1.23,1.23,0,0,1,.54.9,1.16,1.16,0,0,1-.18.6,1,1,0,0,0-.24.54c-.06.18-.06.3-.12.36a12,12,0,0,0-.6,1.56,7.38,7.38,0,0,1-.54,1.32c-.18.36-.3.72-.42,1l-.66,1.8A10,10,0,0,0,23,10a7.06,7.06,0,0,1-.42,1.2l-1,2.76L21,15.18c-.18.54-.36,1.08-.6,1.62a23.53,23.53,0,0,0-.84,2.64,6.4,6.4,0,0,1-.42,1.14l-.48,1.68-.06.36-.3,1A5.19,5.19,0,0,1,17.94,25l-.3,1.32-.18.72c-.18.84-.36,1.68-.54,2.58l-.06.12-.36,2a11.78,11.78,0,0,0-.24,2.46v1.2a1.1,1.1,0,0,0,.36,1,.87.87,0,0,1,.3.48v.12c-.06.06-.06.12-.12.18a.45.45,0,0,1-.3.06l-.12.06-.24-.06c-.18,0-.24.12-.24.3v.3c0,.18-.12.3-.3.42a1.25,1.25,0,0,1-.9.24c-1.74,0-2.88-1.08-3.54-3.24a22.47,22.47,0,0,1-.72-2.7,5.51,5.51,0,0,1-.3-1.68l-.06-.72a3,3,0,0,1-.24-1L9.3,24.6a6.19,6.19,0,0,0-.06-1.14V23c-.18.18-.24.3-.24.36a.22.22,0,0,1-.06.18A33.66,33.66,0,0,0,7.68,27.9L6.12,33.54a60.77,60.77,0,0,0-1.5,7.38l-.12,1a.32.32,0,0,0,.18.24h.06c.06.06.12.06.18.12s.18.12.24.18a.85.85,0,0,1,.12.36c-.06.3-.3.42-.72.42Z"/><path class="cls-1" d="M21.06,35.7a3.38,3.38,0,0,1-1.68-1.62,1.16,1.16,0,0,1-.18-.6,1.91,1.91,0,0,1,.66-1.14,6.93,6.93,0,0,1,1.5-1.44,5.87,5.87,0,0,1,1.44-1,11.55,11.55,0,0,1,1.8-1.08,3.21,3.21,0,0,0,.84-.36,7.68,7.68,0,0,1,1.44-.66,10.34,10.34,0,0,0,1.26-.42l2.1-.66c1.38-.48,2.82-.9,4.2-1.26A45.57,45.57,0,0,1,40,24.24h.36a3,3,0,0,1,2,1.68,2.57,2.57,0,0,1,.36,1c0,.42-.18.66-.48.66a2.36,2.36,0,0,1-.36-.12,1.85,1.85,0,0,0-.6-.06,3,3,0,0,0-.72.12c-.3.06-.6.18-.9.24a20.68,20.68,0,0,0-3.12,1,12.55,12.55,0,0,0-2.22.78,12.17,12.17,0,0,1-1.56.66,20.54,20.54,0,0,0-2,.78c-.66.3-1.26.66-1.8,1s-1.2.6-1.74.9a14.36,14.36,0,0,0-1.44.78,1.31,1.31,0,0,1-.3.18l-.78.54L22.5,35.64a1.66,1.66,0,0,1-.78.18A3.1,3.1,0,0,1,21.06,35.7Zm2.16-9.24a3.43,3.43,0,0,1-2-2.1.89.89,0,0,1-.06-.42,1.56,1.56,0,0,1,.18-.66,5.43,5.43,0,0,1,2.16-1.86,7,7,0,0,0,2.28-1.68,23.2,23.2,0,0,1,3.42-2.94c1.26-.84,2.52-1.74,3.78-2.64a2.53,2.53,0,0,0,.84-.54.86.86,0,0,0-.54.12c-.12.06-.18.12-.24.12a5.37,5.37,0,0,1-2.1.66,2.13,2.13,0,0,0-.54.24h-.06a3.38,3.38,0,0,1-.72.24,2,2,0,0,0-.72.3,16.55,16.55,0,0,1-1.62.48L26.1,16a1.68,1.68,0,0,1-1.2-.48,3.86,3.86,0,0,1-1.32-1.74,2.13,2.13,0,0,1-.12-.6,1.13,1.13,0,0,1,.42-.84,3.88,3.88,0,0,1,1.56-1,13.58,13.58,0,0,1,2.58-1c1.62-.48,2.58-.78,3-.84.24-.06.48-.06.72-.12A12.08,12.08,0,0,0,33.48,9,1.66,1.66,0,0,0,34,8.94l1.62-.3.9-.18a28.75,28.75,0,0,1,3.3-.3,2.22,2.22,0,0,1,1.08.48,3.44,3.44,0,0,1,1.2,2v.24c0,.42-.18.6-.54.6l-.6-.12H40.8a7.28,7.28,0,0,0-2.58,1.26c-2.94,1.8-5.7,3.72-8.4,5.76l-.18.06a3.62,3.62,0,0,0-.48.48,8,8,0,0,1,1.56-.54l.84-.3,2.76-.9L35,17a25.33,25.33,0,0,1,5.58-1.44,1.47,1.47,0,0,1,1,.36,3.36,3.36,0,0,1,1,1.44l.06.36a.59.59,0,0,1-.54.6q-1.71.45-3.42,1.08c-1.14.48-2.22,1-3.24,1.38a11.16,11.16,0,0,0-2,.9c-.6.3-1.44.66-2.46,1.14a26.85,26.85,0,0,0-2.94,1.5l-2.7,1.44a8.47,8.47,0,0,1-1.8.84A.85.85,0,0,1,23.22,26.46Z"/><path class="cls-1" d="M43.92,40.26a3.58,3.58,0,0,1-2.46-2.88c-.06-.66-.12-1.32-.12-2a5.79,5.79,0,0,1,.18-2.1c.06-.66.12-1.38.24-2.16L42.12,29l.54-3,.42-2.28c.12-.66.24-1.32.42-2l.12-.84,1.08-5L45.42,13l.18-.54a1,1,0,0,0,.12-.3.33.33,0,0,0-.24-.36,1.53,1.53,0,0,1-.66-1.14c0-.78.72-1.68,2.1-2.76a.85.85,0,0,0,.48-.54c.18-.54.48-.78.9-.78a.65.65,0,0,1,.3.06.76.76,0,0,0,.36.06,2.7,2.7,0,0,0,1-.3,13.32,13.32,0,0,1,4.74-.78,6.94,6.94,0,0,1,5.64,2.88,3.83,3.83,0,0,1,.9,2.22c0,2.1-1.32,4.56-4,7.5l-.42.48a10.76,10.76,0,0,1-1.38,1.5,17,17,0,0,1,2,.06,5.89,5.89,0,0,1,4.92,2.4,3.42,3.42,0,0,1,.72,2.1,4.09,4.09,0,0,1-.3,1.38l-.18.36a8.71,8.71,0,0,1-1,1.56l-.42.54a18.46,18.46,0,0,1-1.5,1.62L58.44,31.5a13.65,13.65,0,0,1-2,1.62,3,3,0,0,0-.48.42,8.79,8.79,0,0,1-1.44,1,14.12,14.12,0,0,1-3,1.74c-.18.06-.36.18-.54.24a2.1,2.1,0,0,1-.48.3,24.8,24.8,0,0,1-3.3,1.38,8.49,8.49,0,0,0-1.86.72c0,.06,0,.06.06.06l.12.12c.06.06.12.18.24.24a4.13,4.13,0,0,1,.18.48c0,.42-.24.6-.72.66A3.42,3.42,0,0,1,43.92,40.26Zm3.72-8.16A.85.85,0,0,1,48,32a.45.45,0,0,1,.24.06.76.76,0,0,0,.36.06,1,1,0,0,0,.6-.18,1.08,1.08,0,0,1,.42-.3,1.31,1.31,0,0,0,.3-.24l2.64-1.86a7.28,7.28,0,0,1,.84-.6,3.73,3.73,0,0,0,.72-.48c.18-.18.6-.54,1.32-1.14a22.57,22.57,0,0,0,3.9-3.66l.3-.66c0-.06-.12-.12-.3-.12a4.9,4.9,0,0,1-.84-.06,16.36,16.36,0,0,0-4.2.66l-.48.06a4.65,4.65,0,0,0-1.08.3,3.81,3.81,0,0,1-1.08.36,4.54,4.54,0,0,1-1.14.3,3,3,0,0,1-2-1c-.12-.12-.18-.18-.24-.18s-.18.12-.24.36c-.18.66-.36,1.38-.54,2s-.42,1.86-.78,3.42l-.42,2.16-.18,1a.22.22,0,0,1-.06.18v.12c0,.06.06.06.24.06Zm1.62-12.6h.06c.06-.06.12-.18.18-.24a2.28,2.28,0,0,1,.36-.3,6.74,6.74,0,0,0,1.2-1.08l2.4-2.28a3.44,3.44,0,0,1,.66-.66q1-1,1.8-2a1.59,1.59,0,0,1,.3-.36,1.78,1.78,0,0,0,.42-.48,3.64,3.64,0,0,1,.42-.6A4.91,4.91,0,0,0,58.2,9.18a.38.38,0,0,0-.3-.36,2,2,0,0,0-.6-.06,2.69,2.69,0,0,1-.66-.06,2.92,2.92,0,0,0-.72-.06l-.48.06A13.44,13.44,0,0,0,52,9.18c-.06.06-.18.06-.24.12s-.12.12-.12.18a.76.76,0,0,1-.06.36,1.17,1.17,0,0,0-.06.48v.3a5.25,5.25,0,0,1-.12,1,5.62,5.62,0,0,0-.24,1c-.06.3-.18.6-.24.9-.48,1.5-.84,2.64-1,3.42v.06l-.18.54a3.14,3.14,0,0,0-.36,1,2.57,2.57,0,0,1-.3,1,.22.22,0,0,0,.06.18h.12Z"/><path class="cls-2" d="M66.36,42.42a4,4,0,0,1-.42-2,9.81,9.81,0,0,1-.12-1.32V36.48l.06-2.1a29.06,29.06,0,0,1,.18-3.18l.06-.84.06-.12-.06-.12c-.18,0-.24,0-.24.06a2.08,2.08,0,0,1-1.2.42,3.43,3.43,0,0,1-1.86-.9h-.06a2.16,2.16,0,0,1-1-1.56,1.35,1.35,0,0,1,.48-1,1.08,1.08,0,0,0,.3-.42,1,1,0,0,1,.36-.36,21,21,0,0,1,2.4-1.62l1.32-.84a.55.55,0,0,0,.24-.36c.06-.72.12-1.44.24-2.16s.3-1.92.54-3.6l.18-1.32c.12,0,.18-.48.18-1.38v-.06c0-.12-.06-.18-.24-.18l-.48.06a2,2,0,0,1-1.14-.36,4.43,4.43,0,0,1-1.68-1.8,1.16,1.16,0,0,1-.18-.6,1.13,1.13,0,0,1,.42-.84,12,12,0,0,0,1.2-1.08l.12-.06a3.4,3.4,0,0,0,1.08-.72,10.24,10.24,0,0,1,2.34-1.26c.18-.06.24-.18.3-.36a18.76,18.76,0,0,1,1-3.12,2.06,2.06,0,0,1,.78-1.38,1.12,1.12,0,0,1,.66-.24.89.89,0,0,1,.42.06,4.15,4.15,0,0,1,3.06,2.64A.36.36,0,0,0,76,6l.6-.18a12.6,12.6,0,0,1,2.52-.6,10.44,10.44,0,0,1,2.7-.36l1.2.06A4.3,4.3,0,0,1,85,6.06,3.23,3.23,0,0,1,86,8.16a1.51,1.51,0,0,1-.36,1,2.53,2.53,0,0,1-1.8.84,3.1,3.1,0,0,1-.66-.12,1.9,1.9,0,0,1-1-.84c-.06-.06-.06-.12-.12-.18s-.18-.06-.36-.06a1.16,1.16,0,0,0-.6.18,4.64,4.64,0,0,1-1.68.6l-4,1.62a1.26,1.26,0,0,0-.78,1,11.07,11.07,0,0,1-.54,2.4,9.59,9.59,0,0,1-.3,1.26,10.42,10.42,0,0,0-.42,1.74c-.12.54-.3,1.14-.48,1.68-.06.3-.12.6-.18,1l-.06.42a1.28,1.28,0,0,0,.72-.18l.12-.06a18.07,18.07,0,0,1,4-1.32h.42A2.91,2.91,0,0,1,80,20a4.84,4.84,0,0,1,1,1.44l.06.3a.82.82,0,0,1-.84.84c-.18,0-.36,0-.42-.06a1.79,1.79,0,0,0-.9-.3,2.06,2.06,0,0,0-1.14.42l-.12.06c-1.32.66-3.18,1.68-5.58,3.12a1.73,1.73,0,0,0-.78,1.38c-.06.66-.12,1.32-.24,2-.3,1.5-.48,3-.66,4.5a.45.45,0,0,1-.06.3c-.3,3-.48,5.28-.48,6.84v1l.06.06a2.25,2.25,0,0,0,.06.66,1.24,1.24,0,0,0,.36.6c.18.18.3.3.3.48a1.53,1.53,0,0,1-.12.42.85.85,0,0,1-.72.48A3.88,3.88,0,0,1,66.36,42.42Z"/><path class="cls-2" d="M84,36.84a4.6,4.6,0,0,1-2-2.58,2.13,2.13,0,0,1-.12-.6,1.85,1.85,0,0,1,.12-.48c.06-.18.66-.48,1.68-.84a12.09,12.09,0,0,1,2.22-.78l.78-.18A17.81,17.81,0,0,1,89.28,31l1.8-.18c.6-.06,1.2-.06,1.86-.06a34.18,34.18,0,0,1,4-.18l.54.06a15.81,15.81,0,0,1,1.68.12,3.74,3.74,0,0,1,2.22,1.62,2.42,2.42,0,0,1,.54,1.5.28.28,0,0,1-.3.3h-.24a6.61,6.61,0,0,0-1.08-.12,34.2,34.2,0,0,0-3.48.36l-1.68.36c-1,.18-2,.36-3,.6L91,35.64l-2.64.72a4.65,4.65,0,0,1-1.08.3,6.72,6.72,0,0,0-1.38.36,4.63,4.63,0,0,1-.9.12A1.86,1.86,0,0,1,84,36.84Zm.48-11.28A6.35,6.35,0,0,1,82.92,22a3,3,0,0,1-.06-.84,6.68,6.68,0,0,1,.12-1,6.17,6.17,0,0,0,.06-1,1.28,1.28,0,0,1,.18-.72v-.06a4.51,4.51,0,0,0,.42-1.08A5,5,0,0,1,84,16.14a31.5,31.5,0,0,1,4-7.38.9.9,0,0,0,.24-.66,1.17,1.17,0,0,0-.06-.42,1.41,1.41,0,0,1-.12-.48.62.62,0,0,1,.24-.48c.12-.18.36-.24.72-.24h.42a3.4,3.4,0,0,0,1.08-.18,4.43,4.43,0,0,1,.72-.12,2,2,0,0,1,1.68,1.08,1.57,1.57,0,0,0,1,.6c.42.18,1.14.54,2.28,1.08a9.31,9.31,0,0,1,5.34,5.7,6.89,6.89,0,0,1,.36,2.22v.54A10.65,10.65,0,0,1,99,23.94l-1.26,1.2c-.36.3-.78.6-1.2.9l-.66.42a10,10,0,0,1-2.4,1.2,8.81,8.81,0,0,1-3.54.78A7.22,7.22,0,0,1,84.48,25.56ZM88,23.64a8.14,8.14,0,0,0,3.18-1A14.93,14.93,0,0,0,96,18.84a8.59,8.59,0,0,0,1.62-2.58,6.07,6.07,0,0,0,.6-2.34c0-.78-1.32-1.8-4-2.94l-.9-.42-.24-.06-.18.06a4.3,4.3,0,0,0-1.32,1.62l-.36.54c-.54.78-1,1.56-1.5,2.34l-.3.54a11.19,11.19,0,0,0-.6,1.2,9.87,9.87,0,0,1-.6,1.14l-.06.24a6.56,6.56,0,0,0-.48.9c-.18.66-.42,1.26-.6,1.92a11.59,11.59,0,0,0-.42,2.4c0,.3.06.42.18.42h.24ZM91.26,21a2.29,2.29,0,0,1-1.2-.9,2.21,2.21,0,0,1-.42-1.38,3.08,3.08,0,0,1,.12-1,9,9,0,0,1,1-2.46l.36-.66v-.12a2.85,2.85,0,0,1,1.38-1.26c.06-.06.12-.06.18-.12h.24l.24.06a3.3,3.3,0,0,1,1.44,1.56l.06.48a.45.45,0,0,1-.06.3.22.22,0,0,0-.06.18A4.25,4.25,0,0,1,93.84,17,13.14,13.14,0,0,0,92.4,18.9a4.26,4.26,0,0,0-.66,1.44v.36a.28.28,0,0,1-.3.3Z"/><path class="cls-2" d="M102.6,37.86a2.92,2.92,0,0,1-1-2.1V34c0-.78.06-1.74.18-2.94l.06-.6-.06-.18a4.26,4.26,0,0,1-.84-.6,1.48,1.48,0,0,1-.78-1.2c0-.3.18-.48.54-.66s.54-.36.54-.54a.22.22,0,0,0-.06-.18c0-.3.06-.54.18-.6a.45.45,0,0,1,.24-.12l.6.12c.06,0,.18-.12.24-.42.06-.54.12-1,.18-1.5l.18-1a16.76,16.76,0,0,1,.42-2.4c.42-2.1.72-3.72,1-4.86s.6-2.16,1-3.24c0-.12-.12-.3-.42-.6a1.28,1.28,0,0,1-.6-.66.51.51,0,0,1-.12-.36,1.43,1.43,0,0,1,.24-.72,7.29,7.29,0,0,1,2.28-2.22,5.87,5.87,0,0,0,1.26-1.08,5.57,5.57,0,0,1,1.32-.6,17.59,17.59,0,0,1,6-1.14h1.62a6.23,6.23,0,0,1,2.76,1.08,5.93,5.93,0,0,1,2.1,3.54v.36c0,1.92-1.2,4.08-3.54,6.48a69.62,69.62,0,0,1-7.14,6.42A36.76,36.76,0,0,0,108,26.16a25.1,25.1,0,0,0,6.84-2,29.33,29.33,0,0,0,5.1-2.64l.42-.3h.18c.06.06.12.06.18.12a.22.22,0,0,1,.06.18,1.49,1.49,0,0,1,.78,1.26.9.9,0,0,1-.24.66,16.36,16.36,0,0,1-4.44,3.36A28.3,28.3,0,0,1,110,29.76a15.45,15.45,0,0,1-3.36.42,2.63,2.63,0,0,0-1.14.18c-.24.12-.42,1.2-.6,3.24-.06.48-.12,1-.18,1.68a6.59,6.59,0,0,0-.06,1.26,1.87,1.87,0,0,0,.18,1.08A1.53,1.53,0,0,1,105,38c0,.3-.18.48-.54.48A3.49,3.49,0,0,1,102.6,37.86Zm4.92-16.32c.9-.78,2.1-2,3.6-3.48s3-3,4.38-4.56a15,15,0,0,0,2.7-3.72l.06-.06a1,1,0,0,0,.18-.48.22.22,0,0,0-.06-.18c-.06-.06-.24-.06-.6-.12-.6-.06-1.2-.12-1.74-.12a13.74,13.74,0,0,0-4.68.84.58.58,0,0,0-.48.54,3,3,0,0,1-.24.78,7.13,7.13,0,0,0-.42,1.38,10.34,10.34,0,0,1-.42,1.26l-.54,1.68-.36,1.14c-.78,2.28-1.26,4.08-1.56,5.34Z"/><path class="cls-2" d="M137,44.22a2.46,2.46,0,0,1-1.92-1.8,23,23,0,0,1-.3-3.78c0-1.5.06-2.76.12-3.84l.06-1.56a10.53,10.53,0,0,1-6.42,2.46,24.92,24.92,0,0,1-2.52-.24c-1.38-.18-2.82-1.38-4.26-3.66a10.94,10.94,0,0,1-1.5-6.06,25.62,25.62,0,0,1,.3-3.54,34.12,34.12,0,0,1,4-10.56,24.9,24.9,0,0,1,6.72-7.92,6.81,6.81,0,0,1,3.84-1.44,5.31,5.31,0,0,1,3,1,2.88,2.88,0,0,1,1.32,2.22c0,.78-.54,2-1.68,3.66a26.59,26.59,0,0,0-2,3.3.63.63,0,0,1-.54.3.8.8,0,0,1-.3-.06,1,1,0,0,1-.6-.3.83.83,0,0,1-.3-.54,1,1,0,0,1,.12-.3,22.55,22.55,0,0,0,1.14-2.7,13.76,13.76,0,0,0,.84-2.46.13.13,0,0,0-.12-.12c-.3,0-1.14.66-2.52,2a28,28,0,0,0-4.32,6.12q-4,7.65-4,13.86c0,3.06.66,4.56,1.92,4.56a9,9,0,0,0,4.2-1.14A12.28,12.28,0,0,0,135.12,29l.72-2a7.76,7.76,0,0,0,.6-2.46c0-.54-.24-.84-.66-.9l-.54-.06a9.31,9.31,0,0,0-2,.3c-1.08.18-1.74.3-1.92.3-.78,0-1.32-.48-1.68-1.44a1.41,1.41,0,0,1-.12-.48,1.15,1.15,0,0,1,.24-.72,4.94,4.94,0,0,1,2.16-1.32c1.08-.36,2.22-.66,3.36-1s2-.36,2.52-.42,1-.06,1.5-.12a11.09,11.09,0,0,1,1.38-.06,10.25,10.25,0,0,1,1.86.18c.6.12,1.14.66,1.62,1.56a1.53,1.53,0,0,1,.12.42.32.32,0,0,1-.36.36l-.6-.12a5.07,5.07,0,0,0-1.38.36c-.24.06-.48.72-.66,1.92l-.24,1a92,92,0,0,0-3.06,13.62c-.24,2.34-.36,4-.36,4.92v1.38a.22.22,0,0,1-.18.06Z"/><path class="cls-2" d="M143.22,35.7a3.38,3.38,0,0,1-1.68-1.62,1.16,1.16,0,0,1-.18-.6,1.91,1.91,0,0,1,.66-1.14,6.93,6.93,0,0,1,1.5-1.44,5.87,5.87,0,0,1,1.44-1,11.55,11.55,0,0,1,1.8-1.08,3.21,3.21,0,0,0,.84-.36,7.68,7.68,0,0,1,1.44-.66,10.34,10.34,0,0,0,1.26-.42l2.1-.66c1.38-.48,2.82-.9,4.2-1.26a45.57,45.57,0,0,1,5.58-1.2h.36a3,3,0,0,1,2,1.68,2.57,2.57,0,0,1,.36,1c0,.42-.18.66-.48.66a2.36,2.36,0,0,1-.36-.12,1.85,1.85,0,0,0-.6-.06,3,3,0,0,0-.72.12c-.3.06-.6.18-.9.24a20.68,20.68,0,0,0-3.12,1,12.55,12.55,0,0,0-2.22.78,12.17,12.17,0,0,1-1.56.66,20.54,20.54,0,0,0-2,.78c-.66.3-1.26.66-1.8,1s-1.2.6-1.74.9a14.36,14.36,0,0,0-1.44.78,1.31,1.31,0,0,1-.3.18l-.78.54-2.22,1.32a1.66,1.66,0,0,1-.78.18A3.1,3.1,0,0,1,143.22,35.7Zm2.16-9.24a3.43,3.43,0,0,1-2-2.1.89.89,0,0,1-.06-.42,1.56,1.56,0,0,1,.18-.66,5.43,5.43,0,0,1,2.16-1.86A7,7,0,0,0,148,19.74a23.2,23.2,0,0,1,3.42-2.94c1.26-.84,2.52-1.74,3.78-2.64a2.53,2.53,0,0,0,.84-.54.86.86,0,0,0-.54.12c-.12.06-.18.12-.24.12a5.37,5.37,0,0,1-2.1.66,2.13,2.13,0,0,0-.54.24h-.06a3.38,3.38,0,0,1-.72.24,2,2,0,0,0-.72.3,16.55,16.55,0,0,1-1.62.48l-1.2.24a1.68,1.68,0,0,1-1.2-.48,3.86,3.86,0,0,1-1.32-1.74,2.13,2.13,0,0,1-.12-.6,1.13,1.13,0,0,1,.42-.84,3.88,3.88,0,0,1,1.56-1,13.58,13.58,0,0,1,2.58-1c1.62-.48,2.58-.78,3-.84.24-.06.48-.06.72-.12A12.08,12.08,0,0,0,155.64,9a1.66,1.66,0,0,0,.54-.06l1.62-.3.9-.18a28.75,28.75,0,0,1,3.3-.3,2.22,2.22,0,0,1,1.08.48,3.44,3.44,0,0,1,1.2,2v.24c0,.42-.18.6-.54.6l-.6-.12H163a7.28,7.28,0,0,0-2.58,1.26c-2.94,1.8-5.7,3.72-8.4,5.76l-.18.06a3.62,3.62,0,0,0-.48.48,8,8,0,0,1,1.56-.54l.84-.3,2.76-.9.72-.18a25.33,25.33,0,0,1,5.58-1.44,1.47,1.47,0,0,1,1,.36,3.36,3.36,0,0,1,1,1.44l.06.36a.59.59,0,0,1-.54.6q-1.71.45-3.42,1.08c-1.14.48-2.22,1-3.24,1.38a11.16,11.16,0,0,0-2,.9c-.6.3-1.44.66-2.46,1.14a26.85,26.85,0,0,0-2.94,1.5l-2.7,1.44a8.47,8.47,0,0,1-1.8.84A.85.85,0,0,1,145.38,26.46Z"/></g></g></svg>