<svg xmlns="http://www.w3.org/2000/svg" viewBox="0 0 44.22 44.52"><defs><style>.cls-1{fill:#353535;}.cls-2{fill:#db324d;}</style></defs><g id="Layer_2" data-name="Layer 2"><g id="Layer_1-2" data-name="Layer 1"><path class="cls-1" d="M4.08,43.2a4.09,4.09,0,0,1-2.58-.9A2.8,2.8,0,0,1,.3,39.9L.12,38.82V38.4a4,4,0,0,0-.06-.78,6.78,6.78,0,0,1,0-1.8v-1a6.52,6.52,0,0,1,.06-1.08l.06-2.16A8.71,8.71,0,0,0,.36,29a.22.22,0,0,1,.06-.18c0-.06,0-.06.06-.12l.06-.24-.06-.3a2.92,2.92,0,0,1,.06-.72,1.49,1.49,0,0,0,.06-.48.76.76,0,0,1,.06-.36,10.78,10.78,0,0,1,.12-1.32L1,23.16a5.25,5.25,0,0,1,.12-1,3.69,3.69,0,0,0,.06-.78c.06-.54.18-1.38.3-2.64a.76.76,0,0,1,.06-.36.36.36,0,0,0,.06-.24L2,16l.06-.24.42-1.56a10.93,10.93,0,0,0,.3-1.2,4.42,4.42,0,0,1,.24-.84,9.71,9.71,0,0,0,.36-1A4.81,4.81,0,0,1,3.9,9.9a1.26,1.26,0,0,1,1.2-.72,4,4,0,0,1,2.46.9A1.54,1.54,0,0,1,8,11.22a1.34,1.34,0,0,1-.12.72,5.93,5.93,0,0,1-.36,1.86c-.06.42-.12.78-.18,1.2a10.45,10.45,0,0,1-.3,1.32A10.31,10.31,0,0,0,6.6,18.6a4.63,4.63,0,0,1-.12.9A16.66,16.66,0,0,0,6,21.78l-.18.78a10.59,10.59,0,0,0-.24,1.2c-.06.42-.06.72-.12,1a4.63,4.63,0,0,0-.12.9c-.06.3-.06.54-.12.78a3,3,0,0,0-.12.72C5,27.42,5,27.72,5,28a6.65,6.65,0,0,0-.12,1.14.77.77,0,0,0,.24-.6.22.22,0,0,0,.06-.18L7,22.74,8,20A4.59,4.59,0,0,1,9.42,17.7a.77.77,0,0,0,.24-.6,1.55,1.55,0,0,1,.54-1,1.68,1.68,0,0,1,1.08-.36h.18q2,.27,2,1.44l-.06,1.38.06.48a3.76,3.76,0,0,1-.12,1,9.31,9.31,0,0,1-.06,1.38c-.06.72-.06,1.44-.06,2.22a33.48,33.48,0,0,0,.18,4l1-5.34c.12-.66.24-1.38.42-2.1A18.9,18.9,0,0,1,15.3,18L16,15.24a23.49,23.49,0,0,1,1.2-4.2l.06-.24v-.06l.06-.24c.12-.24.24-.48.36-.78a3.84,3.84,0,0,1,.36-1,6.67,6.67,0,0,0,.42-1,6.06,6.06,0,0,1,.42-.9,9.54,9.54,0,0,1,.66-1.56,4.86,4.86,0,0,0,.36-.78,3.58,3.58,0,0,1,.54-.9c.18-.3.36-.6.48-.84a3.56,3.56,0,0,1,.24-.48,1.31,1.31,0,0,0,.24-.3c.06-.12.18-.24.3-.42A2.57,2.57,0,0,1,23.88,0a3.51,3.51,0,0,1,1.86.66,1.23,1.23,0,0,1,.54.9,1.16,1.16,0,0,1-.18.6,1,1,0,0,0-.24.54c-.06.18-.06.3-.12.36a12,12,0,0,0-.6,1.56,7.38,7.38,0,0,1-.54,1.32c-.18.36-.3.72-.42,1l-.66,1.8A10,10,0,0,0,23,10a7.06,7.06,0,0,1-.42,1.2l-1,2.76L21,15.18c-.18.54-.36,1.08-.6,1.62a23.53,23.53,0,0,0-.84,2.64,6.4,6.4,0,0,1-.42,1.14l-.48,1.68-.06.36-.3,1A5.19,5.19,0,0,1,17.94,25l-.3,1.32-.18.72c-.18.84-.36,1.68-.54,2.58l-.06.12-.36,2a11.78,11.78,0,0,0-.24,2.46v1.2a1.1,1.1,0,0,0,.36,1,.87.87,0,0,1,.3.48v.12c-.06.06-.06.12-.12.18a.45.45,0,0,1-.3.06l-.12.06-.24-.06c-.18,0-.24.12-.24.3v.3c0,.18-.12.3-.3.42a1.25,1.25,0,0,1-.9.24c-1.74,0-2.88-1.08-3.54-3.24a22.47,22.47,0,0,1-.72-2.7,5.51,5.51,0,0,1-.3-1.68l-.06-.72a3,3,0,0,1-.24-1L9.3,24.6a6.19,6.19,0,0,0-.06-1.14V23c-.18.18-.24.3-.24.36a.22.22,0,0,1-.06.18A33.66,33.66,0,0,0,7.68,27.9L6.12,33.54a60.77,60.77,0,0,0-1.5,7.38l-.12,1a.32.32,0,0,0,.18.24h.06c.06.06.12.06.18.12s.18.12.24.18a.85.85,0,0,1,.12.36c-.06.3-.3.42-.72.42Z"/><path class="cls-2" d="M24.54,42.42a4,4,0,0,1-.42-2A9.81,9.81,0,0,1,24,39.12V36.48l.06-2.1a29.06,29.06,0,0,1,.18-3.18l.06-.84.06-.12-.06-.12c-.18,0-.24,0-.24.06a2.08,2.08,0,0,1-1.2.42A3.43,3.43,0,0,1,21,29.7h-.06a2.16,2.16,0,0,1-1-1.56,1.35,1.35,0,0,1,.48-1,1.08,1.08,0,0,0,.3-.42,1,1,0,0,1,.36-.36,21,21,0,0,1,2.4-1.62l1.32-.84a.55.55,0,0,0,.24-.36c.06-.72.12-1.44.24-2.16s.3-1.92.54-3.6L26,16.5c.12,0,.18-.48.18-1.38v-.06c0-.12-.06-.18-.24-.18l-.48.06a2,2,0,0,1-1.14-.36,4.43,4.43,0,0,1-1.68-1.8,1.16,1.16,0,0,1-.18-.6,1.13,1.13,0,0,1,.42-.84,12,12,0,0,0,1.2-1.08l.12-.06a3.4,3.4,0,0,0,1.08-.72,10.24,10.24,0,0,1,2.34-1.26c.18-.06.24-.18.3-.36a18.76,18.76,0,0,1,1-3.12,2.06,2.06,0,0,1,.78-1.38,1.12,1.12,0,0,1,.66-.24.89.89,0,0,1,.42.06,4.15,4.15,0,0,1,3.06,2.64A.36.36,0,0,0,34.2,6l.6-.18a12.6,12.6,0,0,1,2.52-.6A10.44,10.44,0,0,1,40,4.86l1.2.06a4.3,4.3,0,0,1,1.92,1.14,3.23,3.23,0,0,1,1.08,2.1,1.51,1.51,0,0,1-.36,1,2.53,2.53,0,0,1-1.8.84,3.1,3.1,0,0,1-.66-.12,1.9,1.9,0,0,1-1-.84c-.06-.06-.06-.12-.12-.18s-.18-.06-.36-.06a1.16,1.16,0,0,0-.6.18,4.64,4.64,0,0,1-1.68.6l-4,1.62a1.26,1.26,0,0,0-.78,1,11.07,11.07,0,0,1-.54,2.4,9.59,9.59,0,0,1-.3,1.26,10.42,10.42,0,0,0-.42,1.74c-.12.54-.3,1.14-.48,1.68-.06.3-.12.6-.18,1l-.06.42a1.28,1.28,0,0,0,.72-.18l.12-.06a18.07,18.07,0,0,1,4-1.32h.42a2.91,2.91,0,0,1,2.1.9,4.84,4.84,0,0,1,1,1.44l.06.3a.82.82,0,0,1-.84.84c-.18,0-.36,0-.42-.06a1.79,1.79,0,0,0-.9-.3,2.06,2.06,0,0,0-1.14.42l-.12.06c-1.32.66-3.18,1.68-5.58,3.12a1.73,1.73,0,0,0-.78,1.38c-.06.66-.12,1.32-.24,2-.3,1.5-.48,3-.66,4.5a.45.45,0,0,1-.06.3c-.3,3-.48,5.28-.48,6.84v1l.06.06a2.25,2.25,0,0,0,.06.66,1.24,1.24,0,0,0,.36.6c.18.18.3.3.3.48a1.53,1.53,0,0,1-.12.42.85.85,0,0,1-.72.48A3.88,3.88,0,0,1,24.54,42.42Z"/></g></g></svg>